<?xml version="1.0" encoding="utf-8"?>
<!-- Generator: Adobe Illustrator 22.1.0, SVG Export Plug-In . SVG Version: 6.00 Build 0)  -->
<svg version="1.1" id="Layer_1" xmlns="http://www.w3.org/2000/svg" xmlns:xlink="http://www.w3.org/1999/xlink" x="0px" y="0px"
	 viewBox="0 0 43.9 43.9" style="enable-background:new 0 0 43.9 43.9;" xml:space="preserve">
<g>
	<g>
		<g>
			<path d="M35.7,25.5c-1.6,0.9-3.4,1.3-5.1,1.3c-1.1,0-2.2-0.2-3.2-0.6c-1.7,1.6-3.6,2.6-4.5,3.1c1.4,2.1,3.5,3.8,6.2,4.5
				c0.8,0.2,1.6,0.3,2.5,0.3c1.8,0,3.6-0.5,5.1-1.3c0.2-0.8,0.3-1.7,0.3-2.6C36.9,28.7,36.5,27,35.7,25.5z"/>
		</g>
		<g>
			<path d="M34,12.7c-0.1,0-0.2-0.1-0.4-0.1l0,0C33.7,12.6,33.9,12.7,34,12.7z"/>
			<path d="M33.6,12.7c-0.3,2-1.2,3.9-2.4,5.2c0.1,0.4,0.1,0.8,0.1,1.2c0,2.4-1.2,4.5-2.8,6.1c0.4,0.1,0.9,0.1,1.3,0.1
				c2.2,0,4.4-0.7,6.3-2.2c2.2-1.7,3.5-4.1,3.8-6.5c-1.5-1.9-3.6-3.3-6-3.9C33.9,12.7,33.7,12.6,33.6,12.7L33.6,12.7z"/>
		</g>
		<g>
			<path d="M32,11c0-2.7-1.1-5.2-2.8-7c-0.1,0-0.1,0-0.1,0c-2.4,0-4.6,0.9-6.5,2.6c1.8,2,2.5,4.4,2.5,6.9c0,0.2,0,0.4,0,0.6
				c0.4-0.1,0.8-0.2,1.2-0.2c0,0,0.1,0,0.1,0c1.6,0,3.2,0.8,4.1,2.3C31.5,14.7,32,12.9,32,11z"/>
		</g>
		<g>
			<path d="M13.6,4.1c-0.2,0-0.3,0-0.4,0c-1.7,1.8-2.7,4.2-2.7,6.9c0,0,0,0.1,0,0.1c0.1,0,0.2,0,0.4,0c2.8,0,5.4,1.1,7.2,2.9
				c1.5,0.1,3.1,0.9,3.9,2.5c0.4-0.9,1.1-1.5,1.8-1.8c0-0.1,0-0.2,0-0.4c0-2.8-1.2-5.6-3.4-7.6C18.5,4.9,16.1,4.1,13.6,4.1z"/>
		</g>
		<g>
			<polygon points="16.8,14.1 16.8,14.1 16.8,14.1 			"/>
			<path d="M16.5,14.1c-1.5-0.9-3.3-1.4-5.1-1.4c-0.6,0-1.2,0.1-1.8,0.2c-2.7,0.5-5,2-6.4,4c0.4,2.5,1.7,4.8,3.8,6.4
				c1.5-2,3.7-3.4,5.9-3.8c0-0.1,0-0.2,0-0.3C12.8,16.3,14.5,14.6,16.5,14.1z"/>
		</g>
		<g>
			<path d="M7.5,25.5c-0.8,1.5-1.2,3.2-1.2,4.8c0,1,0.1,1.9,0.3,2.8c1.5,0.8,3.2,1.3,4.9,1.3c0.8,0,1.6-0.1,2.5-0.3
				c-0.3-0.9-0.4-1.8-0.4-2.8c0-2.2,0.7-4.3,1.9-6c-1.2-1.3-2.2-2.8-2.6-4.5C10.7,21.6,8.8,23.2,7.5,25.5z"/>
		</g>
		<g>
			<polygon points="16.2,35 16.2,35 16,35 16,35 			"/>
			<path d="M21.7,40.2c2.3-1,4.2-2.8,5.3-5.2c-2.6-1.1-4.5-3.1-5.5-5.4c-0.8-0.4-3-1.6-4.9-3.4c-0.7,1.4-1.1,3-1.1,4.7
				c0,1.4,0.3,2.8,0.9,4.1C17.4,37.5,19.4,39.3,21.7,40.2z"/>
			<polygon points="16.3,34.9 16.2,35 16.2,35 			"/>
		</g>
	</g>
</g>
</svg>
